<svg width="14" height="14" viewBox="0 0 14 14" fill="none" xmlns="http://www.w3.org/2000/svg">
<path d="M6.8406 1.89999C8.4906 1.89999 8.7156 1.89999 9.3906 1.89999C9.9906 1.89999 10.2906 2.04999 10.5156 2.12499C10.8156 2.27499 11.0406 2.34999 11.2656 2.57499C11.4906 2.79999 11.6406 3.02499 11.7156 3.32499C11.7906 3.54999 11.8656 3.84999 11.9406 4.44999C11.9406 5.12499 11.9406 5.27499 11.9406 6.99999C11.9406 8.72499 11.9406 8.87499 11.9406 9.54999C11.9406 10.15 11.7906 10.45 11.7156 10.675C11.5656 10.975 11.4906 11.2 11.2656 11.425C11.0406 11.65 10.8156 11.8 10.5156 11.875C10.2906 11.95 9.9906 12.025 9.3906 12.1C8.7156 12.1 8.5656 12.1 6.8406 12.1C5.1156 12.1 4.9656 12.1 4.2906 12.1C3.6906 12.1 3.3906 11.95 3.1656 11.875C2.8656 11.725 2.6406 11.65 2.4156 11.425C2.1906 11.2 2.0406 10.975 1.9656 10.675C1.8906 10.45 1.8156 10.15 1.7406 9.54999C1.7406 8.87499 1.7406 8.72499 1.7406 6.99999C1.7406 5.27499 1.7406 5.12499 1.7406 4.44999C1.7406 3.84999 1.8906 3.54999 1.9656 3.32499C2.1156 3.02499 2.1906 2.79999 2.4156 2.57499C2.6406 2.34999 2.8656 2.19999 3.1656 2.12499C3.3906 2.04999 3.6906 1.97499 4.2906 1.89999C4.9656 1.89999 5.1906 1.89999 6.8406 1.89999ZM6.8406 0.774994C5.1156 0.774994 4.9656 0.774994 4.2906 0.774994C3.6156 0.774994 3.1656 0.924994 2.7906 1.07499C2.4156 1.22499 2.0406 1.44999 1.6656 1.82499C1.2906 2.19999 1.1406 2.49999 0.915601 2.94999C0.765601 3.32499 0.690601 3.77499 0.615601 4.44999C0.615601 5.12499 0.615601 5.34999 0.615601 6.99999C0.615601 8.72499 0.615601 8.87499 0.615601 9.54999C0.615601 10.225 0.765601 10.675 0.915601 11.05C1.0656 11.425 1.2906 11.8 1.6656 12.175C2.0406 12.55 2.3406 12.7 2.7906 12.925C3.1656 13.075 3.6156 13.15 4.2906 13.225C4.9656 13.225 5.1906 13.225 6.8406 13.225C8.4906 13.225 8.7156 13.225 9.3906 13.225C10.0656 13.225 10.5156 13.075 10.8906 12.925C11.2656 12.775 11.6406 12.55 12.0156 12.175C12.3906 11.8 12.5406 11.5 12.7656 11.05C12.9156 10.675 12.9906 10.225 13.0656 9.54999C13.0656 8.87499 13.0656 8.64999 13.0656 6.99999C13.0656 5.34999 13.0656 5.12499 13.0656 4.44999C13.0656 3.77499 12.9156 3.32499 12.7656 2.94999C12.6156 2.57499 12.3906 2.19999 12.0156 1.82499C11.6406 1.44999 11.3406 1.29999 10.8906 1.07499C10.5156 0.924994 10.0656 0.849994 9.3906 0.774994C8.7156 0.774994 8.5656 0.774994 6.8406 0.774994Z" fill="white"/>
<path d="M6.8406 3.77499C5.0406 3.77499 3.6156 5.19999 3.6156 6.99999C3.6156 8.79999 5.0406 10.225 6.8406 10.225C8.6406 10.225 10.0656 8.79999 10.0656 6.99999C10.0656 5.19999 8.6406 3.77499 6.8406 3.77499ZM6.8406 9.09999C5.7156 9.09999 4.7406 8.19999 4.7406 6.99999C4.7406 5.87499 5.6406 4.89999 6.8406 4.89999C7.9656 4.89999 8.9406 5.79999 8.9406 6.99999C8.9406 8.12499 7.9656 9.09999 6.8406 9.09999Z" fill="white"/>
<path d="M10.1406 4.44999C10.5548 4.44999 10.8906 4.11421 10.8906 3.69999C10.8906 3.28578 10.5548 2.94999 10.1406 2.94999C9.72639 2.94999 9.3906 3.28578 9.3906 3.69999C9.3906 4.11421 9.72639 4.44999 10.1406 4.44999Z" fill="white"/>
</svg>
