<svg width="14" height="14" viewBox="0 0 14 14" fill="none" xmlns="http://www.w3.org/2000/svg">
<path d="M6.84064 1.8999C8.49064 1.8999 8.71564 1.8999 9.39064 1.8999C9.99064 1.8999 10.2906 2.0499 10.5156 2.1249C10.8156 2.2749 11.0406 2.3499 11.2656 2.5749C11.4906 2.7999 11.6406 3.0249 11.7156 3.3249C11.7906 3.5499 11.8656 3.8499 11.9406 4.4499C11.9406 5.1249 11.9406 5.2749 11.9406 6.9999C11.9406 8.7249 11.9406 8.8749 11.9406 9.5499C11.9406 10.1499 11.7906 10.4499 11.7156 10.6749C11.5656 10.9749 11.4906 11.1999 11.2656 11.4249C11.0406 11.6499 10.8156 11.7999 10.5156 11.8749C10.2906 11.9499 9.99064 12.0249 9.39064 12.0999C8.71564 12.0999 8.56564 12.0999 6.84064 12.0999C5.11564 12.0999 4.96564 12.0999 4.29064 12.0999C3.69064 12.0999 3.39064 11.9499 3.16564 11.8749C2.86564 11.7249 2.64064 11.6499 2.41564 11.4249C2.19064 11.1999 2.04064 10.9749 1.96564 10.6749C1.89064 10.4499 1.81564 10.1499 1.74064 9.5499C1.74064 8.8749 1.74064 8.7249 1.74064 6.9999C1.74064 5.2749 1.74064 5.1249 1.74064 4.4499C1.74064 3.8499 1.89064 3.5499 1.96564 3.3249C2.11564 3.0249 2.19064 2.7999 2.41564 2.5749C2.64064 2.3499 2.86564 2.1999 3.16564 2.1249C3.39064 2.0499 3.69064 1.9749 4.29064 1.8999C4.96564 1.8999 5.19064 1.8999 6.84064 1.8999ZM6.84064 0.774902C5.11564 0.774902 4.96564 0.774902 4.29064 0.774902C3.61564 0.774902 3.16564 0.924903 2.79064 1.0749C2.41564 1.2249 2.04064 1.4499 1.66564 1.8249C1.29064 2.1999 1.14064 2.4999 0.915637 2.9499C0.765637 3.3249 0.690637 3.7749 0.615637 4.4499C0.615637 5.1249 0.615637 5.3499 0.615637 6.9999C0.615637 8.7249 0.615637 8.8749 0.615637 9.5499C0.615637 10.2249 0.765637 10.6749 0.915637 11.0499C1.06564 11.4249 1.29064 11.7999 1.66564 12.1749C2.04064 12.5499 2.34064 12.6999 2.79064 12.9249C3.16564 13.0749 3.61564 13.1499 4.29064 13.2249C4.96564 13.2249 5.19064 13.2249 6.84064 13.2249C8.49064 13.2249 8.71564 13.2249 9.39064 13.2249C10.0656 13.2249 10.5156 13.0749 10.8906 12.9249C11.2656 12.7749 11.6406 12.5499 12.0156 12.1749C12.3906 11.7999 12.5406 11.4999 12.7656 11.0499C12.9156 10.6749 12.9906 10.2249 13.0656 9.5499C13.0656 8.8749 13.0656 8.6499 13.0656 6.9999C13.0656 5.3499 13.0656 5.1249 13.0656 4.4499C13.0656 3.7749 12.9156 3.3249 12.7656 2.9499C12.6156 2.5749 12.3906 2.1999 12.0156 1.8249C11.6406 1.4499 11.3406 1.2999 10.8906 1.0749C10.5156 0.924903 10.0656 0.849902 9.39064 0.774902C8.71564 0.774902 8.56564 0.774902 6.84064 0.774902Z" fill="white"/>
<path d="M6.84064 3.7749C5.04064 3.7749 3.61564 5.1999 3.61564 6.9999C3.61564 8.7999 5.04064 10.2249 6.84064 10.2249C8.64064 10.2249 10.0656 8.7999 10.0656 6.9999C10.0656 5.1999 8.64064 3.7749 6.84064 3.7749ZM6.84064 9.0999C5.71564 9.0999 4.74064 8.1999 4.74064 6.9999C4.74064 5.8749 5.64064 4.8999 6.84064 4.8999C7.96564 4.8999 8.94064 5.7999 8.94064 6.9999C8.94064 8.1249 7.96564 9.0999 6.84064 9.0999Z" fill="white"/>
<path d="M10.1406 4.4499C10.5549 4.4499 10.8906 4.11412 10.8906 3.6999C10.8906 3.28569 10.5549 2.9499 10.1406 2.9499C9.72642 2.9499 9.39064 3.28569 9.39064 3.6999C9.39064 4.11412 9.72642 4.4499 10.1406 4.4499Z" fill="white"/>
</svg>
