<svg width="13" height="10" viewBox="0 0 13 10" fill="none" xmlns="http://www.w3.org/2000/svg">
<path d="M12.8406 1.25C12.3906 1.475 11.9406 1.55 11.4156 1.625C11.9406 1.325 12.3156 0.875 12.4656 0.275C12.0156 0.575 11.4906 0.725 10.8906 0.875C10.4406 0.425 9.76564 0.125 9.09064 0.125C7.51564 0.125 6.31564 1.625 6.69064 3.125C4.66564 3.05 2.86564 2.075 1.59064 0.575C0.915637 1.7 1.29064 3.125 2.34064 3.875C1.96564 3.875 1.59064 3.725 1.21564 3.575C1.21564 4.7 2.04064 5.75 3.16564 6.05C2.79064 6.125 2.41564 6.2 2.04064 6.125C2.34064 7.1 3.24064 7.85 4.36564 7.85C3.46564 8.525 2.11564 8.9 0.840637 8.75C1.96564 9.425 3.24064 9.875 4.59064 9.875C9.16564 9.875 11.7156 6.05 11.5656 2.525C12.0906 2.225 12.5406 1.775 12.8406 1.25Z" fill="white"/>
</svg>
