<svg width="13" height="10" viewBox="0 0 13 10" fill="none" xmlns="http://www.w3.org/2000/svg">
<path d="M12.8406 1.25C12.3906 1.475 11.9406 1.55 11.4156 1.625C11.9406 1.325 12.3156 0.875 12.4656 0.275C12.0156 0.575 11.4906 0.725 10.8906 0.875C10.4406 0.425 9.76558 0.125 9.09058 0.125C7.51558 0.125 6.31558 1.625 6.69058 3.125C4.66558 3.05 2.86558 2.075 1.59058 0.575C0.915576 1.7 1.29058 3.125 2.34058 3.875C1.96558 3.875 1.59058 3.725 1.21558 3.575C1.21558 4.7 2.04058 5.75 3.16558 6.05C2.79058 6.125 2.41558 6.2 2.04058 6.125C2.34058 7.1 3.24058 7.85 4.36558 7.85C3.46558 8.525 2.11558 8.9 0.840576 8.75C1.96558 9.425 3.24058 9.875 4.59058 9.875C9.16558 9.875 11.7156 6.05 11.5656 2.525C12.0906 2.225 12.5406 1.775 12.8406 1.25Z" fill="white"/>
</svg>
